<svg xmlns="http://www.w3.org/2000/svg" viewBox="0 0 27.19 39.34"><defs><style>.cls-1{fill:#222;}.cls-2{fill:#6f4e37;}</style></defs><g id="Layer_2" data-name="Layer 2"><g id="Layer_1-2" data-name="Layer 1"><path class="cls-1" d="M5.44.94c5.81-1.31,12.24-1.48,17.76,1,.25,1.53.52,3.05.82,4.57L26.44,8c.28,1.49,1,3,.67,4.54-.9,1.06-2.32,1.68-3,2.88-1,6.69-1.17,13.51-2.29,20.18-.9,3.68-5.4,3.82-8.46,3.69-2.82-.05-7.17.14-7.91-3.41-.94-6.53-1.59-13.13-2.06-19.71l2-.62c1,6.41,1.27,12.92,2.22,19.34.54,2.67,3.73,2.13,5.76,2.24,2.21-.13,6.07.6,6.29-2.6.69-6.52,1.54-13,1.86-19.61-6.45.38-13,.7-19.37-.73-3.93-1-2.05-8.67,2.13-7.16a58.94,58.94,0,0,0,17.54.25c-.37-2-.48-4.61-3.18-4.75l.61,1.32c1.74,2-1.8,2-2.91,2.08-4.2,0-8.71.47-12.6-1.41C1.87,3.18,3.67,1,5.44.94ZM7.11,3.29A47.8,47.8,0,0,0,18,3.5C14.87,1.62,10.53,2.39,7.11,3.29ZM2.19,11.88a57.06,57.06,0,0,0,22.55,0l-.28-2.47c-6.39.68-12.86,1.33-19.24.2C3.3,8.8,1.94,9.8,2.19,11.88Z"/><path class="cls-2" d="M6.88,19.45c4.73.72,8.79-2.34,13.44-2.3-.39,5.6-.82,11.21-1.56,16.78-.08,2.21-2.74,2.33-4.38,2.35-1.92-.17-4.63.49-5.76-1.53C7.61,29.71,7.61,24.53,6.88,19.45Z"/></g></g></svg>